<mxfile host="app.diagrams.net" modified="2022-07-17T18:01:44.797Z" agent="5.0 (Macintosh; Intel Mac OS X 10_15_7) AppleWebKit/605.1.15 (KHTML, like Gecko) Version/15.5 Safari/605.1.15" etag="hwdbLm9YL3zFuTOBzBed" version="20.1.1" type="github">
  <diagram id="ReQBHYg1shg9D8nl3eI_" name="Page-1">
    <mxGraphModel dx="1298" dy="800" grid="1" gridSize="10" guides="1" tooltips="1" connect="1" arrows="1" fold="1" page="1" pageScale="1" pageWidth="827" pageHeight="1169" math="0" shadow="0">
      <root>
        <mxCell id="0" />
        <mxCell id="1" parent="0" />
        <mxCell id="nx5s4ot2xDEE9g_YRDHg-58" style="edgeStyle=orthogonalEdgeStyle;rounded=0;orthogonalLoop=1;jettySize=auto;html=1;entryX=0.5;entryY=0;entryDx=0;entryDy=0;fontSize=35;startArrow=none;startFill=0;endArrow=classic;endFill=1;strokeColor=#82b366;fillColor=#d5e8d4;dashed=1;strokeWidth=2;" parent="1" source="nx5s4ot2xDEE9g_YRDHg-5" target="nx5s4ot2xDEE9g_YRDHg-79" edge="1">
          <mxGeometry relative="1" as="geometry">
            <mxPoint x="728.95" y="537.06" as="targetPoint" />
            <Array as="points">
              <mxPoint x="1087" y="170" />
            </Array>
          </mxGeometry>
        </mxCell>
        <mxCell id="nx5s4ot2xDEE9g_YRDHg-105" style="edgeStyle=orthogonalEdgeStyle;rounded=0;orthogonalLoop=1;jettySize=auto;html=1;entryX=0.5;entryY=0;entryDx=0;entryDy=0;fontSize=35;startArrow=none;startFill=0;endArrow=classic;endFill=1;strokeColor=#82b366;fillColor=#d5e8d4;dashed=1;strokeWidth=2;" parent="1" source="nx5s4ot2xDEE9g_YRDHg-5" target="nx5s4ot2xDEE9g_YRDHg-81" edge="1">
          <mxGeometry relative="1" as="geometry">
            <Array as="points">
              <mxPoint x="1237" y="190" />
            </Array>
          </mxGeometry>
        </mxCell>
        <mxCell id="nx5s4ot2xDEE9g_YRDHg-5" value="Courses" style="rounded=0;whiteSpace=wrap;html=1;" parent="1" vertex="1">
          <mxGeometry x="340" y="90" width="120" height="300" as="geometry" />
        </mxCell>
        <mxCell id="nx5s4ot2xDEE9g_YRDHg-111" style="edgeStyle=orthogonalEdgeStyle;rounded=0;orthogonalLoop=1;jettySize=auto;html=1;fontSize=35;startArrow=none;startFill=0;endArrow=classic;endFill=1;strokeColor=#82b366;fillColor=#d5e8d4;dashed=1;strokeWidth=2;entryX=0.5;entryY=0;entryDx=0;entryDy=0;" parent="1" source="nx5s4ot2xDEE9g_YRDHg-6" target="nx5s4ot2xDEE9g_YRDHg-80" edge="1">
          <mxGeometry relative="1" as="geometry">
            <mxPoint x="890" y="500" as="targetPoint" />
            <Array as="points">
              <mxPoint x="600" y="520" />
              <mxPoint x="600" y="415" />
              <mxPoint x="887" y="415" />
            </Array>
          </mxGeometry>
        </mxCell>
        <mxCell id="nx5s4ot2xDEE9g_YRDHg-112" style="edgeStyle=orthogonalEdgeStyle;rounded=0;orthogonalLoop=1;jettySize=auto;html=1;entryX=0.5;entryY=0;entryDx=0;entryDy=0;fontSize=35;startArrow=none;startFill=0;endArrow=classic;endFill=1;strokeColor=#82b366;dashed=1;fillColor=#d5e8d4;strokeWidth=2;" parent="1" source="nx5s4ot2xDEE9g_YRDHg-6" target="nx5s4ot2xDEE9g_YRDHg-82" edge="1">
          <mxGeometry relative="1" as="geometry">
            <Array as="points">
              <mxPoint x="620" y="540" />
              <mxPoint x="620" y="430" />
              <mxPoint x="734" y="430" />
            </Array>
          </mxGeometry>
        </mxCell>
        <mxCell id="nx5s4ot2xDEE9g_YRDHg-6" value="Students" style="rounded=0;whiteSpace=wrap;html=1;" parent="1" vertex="1">
          <mxGeometry x="340" y="435" width="120" height="300" as="geometry" />
        </mxCell>
        <mxCell id="nx5s4ot2xDEE9g_YRDHg-106" style="edgeStyle=orthogonalEdgeStyle;rounded=0;orthogonalLoop=1;jettySize=auto;html=1;fontSize=35;startArrow=none;startFill=0;endArrow=classic;endFill=1;strokeColor=#82b366;fillColor=#d5e8d4;dashed=1;strokeWidth=2;" parent="1" source="nx5s4ot2xDEE9g_YRDHg-7" target="nx5s4ot2xDEE9g_YRDHg-83" edge="1">
          <mxGeometry relative="1" as="geometry">
            <Array as="points">
              <mxPoint x="1080" y="880" />
            </Array>
          </mxGeometry>
        </mxCell>
        <mxCell id="nx5s4ot2xDEE9g_YRDHg-109" style="edgeStyle=orthogonalEdgeStyle;rounded=0;orthogonalLoop=1;jettySize=auto;html=1;entryX=0.5;entryY=1;entryDx=0;entryDy=0;fontSize=35;startArrow=none;startFill=0;endArrow=classic;endFill=1;strokeColor=#82b366;fillColor=#d5e8d4;dashed=1;strokeWidth=2;" parent="1" source="nx5s4ot2xDEE9g_YRDHg-7" target="nx5s4ot2xDEE9g_YRDHg-84" edge="1">
          <mxGeometry relative="1" as="geometry">
            <Array as="points">
              <mxPoint x="884" y="860" />
            </Array>
          </mxGeometry>
        </mxCell>
        <mxCell id="nx5s4ot2xDEE9g_YRDHg-7" value="Subscriptions" style="rounded=0;whiteSpace=wrap;html=1;" parent="1" vertex="1">
          <mxGeometry x="340" y="780" width="120" height="300" as="geometry" />
        </mxCell>
        <mxCell id="nx5s4ot2xDEE9g_YRDHg-14" value="" style="edgeStyle=orthogonalEdgeStyle;rounded=0;orthogonalLoop=1;jettySize=auto;html=1;strokeWidth=2;startArrow=classic;startFill=1;" parent="1" source="nx5s4ot2xDEE9g_YRDHg-8" target="nx5s4ot2xDEE9g_YRDHg-6" edge="1">
          <mxGeometry relative="1" as="geometry" />
        </mxCell>
        <mxCell id="nx5s4ot2xDEE9g_YRDHg-15" style="edgeStyle=orthogonalEdgeStyle;rounded=0;orthogonalLoop=1;jettySize=auto;html=1;exitX=1;exitY=0.25;exitDx=0;exitDy=0;strokeWidth=2;startArrow=classic;startFill=1;" parent="1" source="nx5s4ot2xDEE9g_YRDHg-8" target="nx5s4ot2xDEE9g_YRDHg-5" edge="1">
          <mxGeometry relative="1" as="geometry" />
        </mxCell>
        <mxCell id="nx5s4ot2xDEE9g_YRDHg-16" style="edgeStyle=orthogonalEdgeStyle;rounded=0;orthogonalLoop=1;jettySize=auto;html=1;exitX=1;exitY=0.75;exitDx=0;exitDy=0;strokeWidth=2;startArrow=classic;startFill=1;" parent="1" source="nx5s4ot2xDEE9g_YRDHg-8" target="nx5s4ot2xDEE9g_YRDHg-7" edge="1">
          <mxGeometry relative="1" as="geometry" />
        </mxCell>
        <mxCell id="nx5s4ot2xDEE9g_YRDHg-8" value="Traefik" style="rounded=0;whiteSpace=wrap;html=1;horizontal=0;fontSize=35;" parent="1" vertex="1">
          <mxGeometry x="130" y="90" width="60" height="990" as="geometry" />
        </mxCell>
        <mxCell id="nx5s4ot2xDEE9g_YRDHg-10" value="" style="edgeStyle=orthogonalEdgeStyle;rounded=0;orthogonalLoop=1;jettySize=auto;html=1;" parent="1" source="nx5s4ot2xDEE9g_YRDHg-9" target="nx5s4ot2xDEE9g_YRDHg-8" edge="1">
          <mxGeometry relative="1" as="geometry" />
        </mxCell>
        <mxCell id="nx5s4ot2xDEE9g_YRDHg-9" value="Actor" style="shape=umlActor;verticalLabelPosition=bottom;verticalAlign=top;html=1;outlineConnect=0;" parent="1" vertex="1">
          <mxGeometry x="30" y="555" width="30" height="60" as="geometry" />
        </mxCell>
        <mxCell id="nx5s4ot2xDEE9g_YRDHg-50" style="edgeStyle=orthogonalEdgeStyle;rounded=0;orthogonalLoop=1;jettySize=auto;html=1;entryX=1.025;entryY=0.1;entryDx=0;entryDy=0;entryPerimeter=0;startArrow=classic;startFill=1;endArrow=classic;endFill=1;strokeColor=default;" parent="1" target="nx5s4ot2xDEE9g_YRDHg-5" edge="1">
          <mxGeometry relative="1" as="geometry">
            <mxPoint x="490" y="120" as="sourcePoint" />
          </mxGeometry>
        </mxCell>
        <mxCell id="nx5s4ot2xDEE9g_YRDHg-49" style="edgeStyle=orthogonalEdgeStyle;rounded=0;orthogonalLoop=1;jettySize=auto;html=1;entryX=0.992;entryY=0.097;entryDx=0;entryDy=0;entryPerimeter=0;startArrow=classic;startFill=1;endArrow=classic;endFill=1;strokeColor=default;" parent="1" target="nx5s4ot2xDEE9g_YRDHg-7" edge="1">
          <mxGeometry relative="1" as="geometry">
            <mxPoint x="490" y="810" as="sourcePoint" />
          </mxGeometry>
        </mxCell>
        <mxCell id="nx5s4ot2xDEE9g_YRDHg-47" style="edgeStyle=orthogonalEdgeStyle;rounded=0;orthogonalLoop=1;jettySize=auto;html=1;entryX=1;entryY=0.1;entryDx=0;entryDy=0;entryPerimeter=0;startArrow=classic;startFill=1;endArrow=classic;endFill=1;strokeColor=default;" parent="1" target="nx5s4ot2xDEE9g_YRDHg-6" edge="1">
          <mxGeometry relative="1" as="geometry">
            <mxPoint x="490" y="465" as="sourcePoint" />
          </mxGeometry>
        </mxCell>
        <mxCell id="nx5s4ot2xDEE9g_YRDHg-60" value="&lt;span style=&quot;caret-color: rgb(0, 0, 0); color: rgb(0, 0, 0);&quot;&gt;DB students&lt;/span&gt;" style="sketch=0;outlineConnect=0;fontColor=#232F3E;gradientColor=none;fillColor=#2E27AD;strokeColor=none;dashed=0;verticalLabelPosition=bottom;verticalAlign=top;align=center;html=1;fontSize=12;fontStyle=0;aspect=fixed;pointerEvents=1;shape=mxgraph.aws4.rds_mysql_instance;" parent="1" vertex="1">
          <mxGeometry x="500" y="435" width="48" height="48" as="geometry" />
        </mxCell>
        <mxCell id="nx5s4ot2xDEE9g_YRDHg-61" value="&lt;span style=&quot;caret-color: rgb(0, 0, 0); color: rgb(0, 0, 0);&quot;&gt;DB subscriptions&lt;br&gt;&lt;/span&gt;" style="sketch=0;outlineConnect=0;fontColor=#232F3E;gradientColor=none;fillColor=#2E27AD;strokeColor=none;dashed=0;verticalLabelPosition=bottom;verticalAlign=top;align=center;html=1;fontSize=12;fontStyle=0;aspect=fixed;pointerEvents=1;shape=mxgraph.aws4.rds_mysql_instance;" parent="1" vertex="1">
          <mxGeometry x="500" y="780" width="48" height="48" as="geometry" />
        </mxCell>
        <mxCell id="nx5s4ot2xDEE9g_YRDHg-62" value="&lt;span style=&quot;caret-color: rgb(0, 0, 0); color: rgb(0, 0, 0);&quot;&gt;DB Courses&lt;/span&gt;" style="sketch=0;outlineConnect=0;fontColor=#232F3E;gradientColor=none;fillColor=#2E27AD;strokeColor=none;dashed=0;verticalLabelPosition=bottom;verticalAlign=top;align=center;html=1;fontSize=12;fontStyle=0;aspect=fixed;pointerEvents=1;shape=mxgraph.aws4.rds_mysql_instance;" parent="1" vertex="1">
          <mxGeometry x="500" y="90" width="48" height="48" as="geometry" />
        </mxCell>
        <mxCell id="nx5s4ot2xDEE9g_YRDHg-101" style="edgeStyle=orthogonalEdgeStyle;rounded=0;orthogonalLoop=1;jettySize=auto;html=1;fontSize=35;startArrow=none;startFill=0;endArrow=classic;endFill=1;strokeColor=#b85450;exitX=1;exitY=0.5;exitDx=0;exitDy=0;fillColor=#f8cecc;dashed=1;strokeWidth=2;" parent="1" source="nx5s4ot2xDEE9g_YRDHg-79" edge="1">
          <mxGeometry relative="1" as="geometry">
            <mxPoint x="460" y="1060" as="targetPoint" />
            <Array as="points">
              <mxPoint x="1350" y="520" />
              <mxPoint x="1350" y="1060" />
              <mxPoint x="460" y="1060" />
            </Array>
          </mxGeometry>
        </mxCell>
        <mxCell id="nx5s4ot2xDEE9g_YRDHg-79" value="course-created" style="strokeWidth=2;dashed=0;align=center;fontSize=12;shape=rect;fillColor=#fffbc0;strokeColor=#000000;" parent="1" vertex="1">
          <mxGeometry x="1012" y="510" width="150" height="20" as="geometry" />
        </mxCell>
        <mxCell id="nx5s4ot2xDEE9g_YRDHg-116" style="edgeStyle=orthogonalEdgeStyle;rounded=0;orthogonalLoop=1;jettySize=auto;html=1;dashed=1;fontSize=9;startArrow=none;startFill=0;endArrow=classic;endFill=1;strokeColor=#b85450;strokeWidth=2;fillColor=#f8cecc;" parent="1" source="nx5s4ot2xDEE9g_YRDHg-80" edge="1">
          <mxGeometry relative="1" as="geometry">
            <mxPoint x="460" y="1000" as="targetPoint" />
            <Array as="points">
              <mxPoint x="636" y="520" />
              <mxPoint x="636" y="1000" />
              <mxPoint x="461" y="1000" />
            </Array>
          </mxGeometry>
        </mxCell>
        <mxCell id="nx5s4ot2xDEE9g_YRDHg-80" value="student-created" style="strokeWidth=2;dashed=0;align=center;fontSize=12;shape=rect;fillColor=#fffbc0;strokeColor=#000000;" parent="1" vertex="1">
          <mxGeometry x="812" y="510" width="150" height="20" as="geometry" />
        </mxCell>
        <mxCell id="nx5s4ot2xDEE9g_YRDHg-107" style="edgeStyle=orthogonalEdgeStyle;rounded=0;orthogonalLoop=1;jettySize=auto;html=1;fontSize=35;startArrow=none;startFill=0;endArrow=classic;endFill=1;strokeColor=#b85450;fillColor=#f8cecc;dashed=1;strokeWidth=2;" parent="1" source="nx5s4ot2xDEE9g_YRDHg-81" edge="1">
          <mxGeometry relative="1" as="geometry">
            <mxPoint x="461" y="1040" as="targetPoint" />
            <Array as="points">
              <mxPoint x="1230" y="1040" />
              <mxPoint x="461" y="1040" />
            </Array>
          </mxGeometry>
        </mxCell>
        <mxCell id="nx5s4ot2xDEE9g_YRDHg-114" style="edgeStyle=orthogonalEdgeStyle;rounded=0;orthogonalLoop=1;jettySize=auto;html=1;dashed=1;fontSize=9;startArrow=none;startFill=0;endArrow=classic;endFill=1;strokeColor=#b85450;strokeWidth=2;fillColor=#f8cecc;" parent="1" source="nx5s4ot2xDEE9g_YRDHg-82" edge="1">
          <mxGeometry relative="1" as="geometry">
            <mxPoint x="460" y="1020" as="targetPoint" />
            <Array as="points">
              <mxPoint x="730" y="1020" />
              <mxPoint x="460" y="1020" />
            </Array>
          </mxGeometry>
        </mxCell>
        <mxCell id="nx5s4ot2xDEE9g_YRDHg-82" value="student-deleted" style="strokeWidth=2;dashed=0;align=center;fontSize=12;shape=rect;fillColor=#fffbc0;strokeColor=#000000;" parent="1" vertex="1">
          <mxGeometry x="659" y="585" width="150" height="20" as="geometry" />
        </mxCell>
        <mxCell id="nx5s4ot2xDEE9g_YRDHg-108" style="edgeStyle=orthogonalEdgeStyle;rounded=0;orthogonalLoop=1;jettySize=auto;html=1;entryX=1;entryY=0.5;entryDx=0;entryDy=0;fontSize=35;startArrow=none;startFill=0;endArrow=classic;endFill=1;strokeColor=#b85450;fillColor=#f8cecc;dashed=1;strokeWidth=2;exitX=1;exitY=0.5;exitDx=0;exitDy=0;" parent="1" source="nx5s4ot2xDEE9g_YRDHg-83" target="nx5s4ot2xDEE9g_YRDHg-5" edge="1">
          <mxGeometry relative="1" as="geometry">
            <Array as="points">
              <mxPoint x="1370" y="680" />
              <mxPoint x="1370" y="240" />
            </Array>
          </mxGeometry>
        </mxCell>
        <mxCell id="nx5s4ot2xDEE9g_YRDHg-83" value="subscription-course-created" style="strokeWidth=2;dashed=0;align=center;fontSize=12;shape=rect;fillColor=#fffbc0;strokeColor=#000000;" parent="1" vertex="1">
          <mxGeometry x="1012" y="670" width="150" height="20" as="geometry" />
        </mxCell>
        <mxCell id="nx5s4ot2xDEE9g_YRDHg-110" style="edgeStyle=orthogonalEdgeStyle;rounded=0;orthogonalLoop=1;jettySize=auto;html=1;entryX=1;entryY=0.5;entryDx=0;entryDy=0;fontSize=35;startArrow=none;startFill=0;endArrow=classic;endFill=1;strokeColor=#b85450;strokeWidth=2;fillColor=#f8cecc;dashed=1;" parent="1" source="nx5s4ot2xDEE9g_YRDHg-84" target="nx5s4ot2xDEE9g_YRDHg-6" edge="1">
          <mxGeometry relative="1" as="geometry">
            <Array as="points">
              <mxPoint x="650" y="680" />
              <mxPoint x="650" y="585" />
            </Array>
          </mxGeometry>
        </mxCell>
        <mxCell id="nx5s4ot2xDEE9g_YRDHg-84" value="subscription-student-created" style="strokeWidth=2;dashed=0;align=center;fontSize=12;shape=rect;fillColor=#fffbc0;strokeColor=#000000;" parent="1" vertex="1">
          <mxGeometry x="809" y="670" width="150" height="20" as="geometry" />
        </mxCell>
        <mxCell id="nx5s4ot2xDEE9g_YRDHg-85" value="Broker" style="strokeWidth=2;dashed=0;align=center;fontSize=9;shape=rect;fillColor=#c0f5a9;strokeColor=#000000;" parent="1" vertex="1">
          <mxGeometry x="962" y="575" width="50" height="40" as="geometry" />
        </mxCell>
        <mxCell id="nx5s4ot2xDEE9g_YRDHg-86" value="" style="edgeStyle=none;endArrow=none;dashed=0;html=1;strokeWidth=2;rounded=0;fontSize=35;" parent="1" source="nx5s4ot2xDEE9g_YRDHg-85" target="nx5s4ot2xDEE9g_YRDHg-79" edge="1">
          <mxGeometry relative="1" as="geometry" />
        </mxCell>
        <mxCell id="nx5s4ot2xDEE9g_YRDHg-87" value="" style="edgeStyle=none;endArrow=none;dashed=0;html=1;strokeWidth=2;rounded=0;fontSize=35;" parent="1" source="nx5s4ot2xDEE9g_YRDHg-85" target="nx5s4ot2xDEE9g_YRDHg-80" edge="1">
          <mxGeometry relative="1" as="geometry" />
        </mxCell>
        <mxCell id="nx5s4ot2xDEE9g_YRDHg-88" value="" style="edgeStyle=none;endArrow=none;dashed=0;html=1;strokeWidth=2;rounded=0;fontSize=35;" parent="1" source="nx5s4ot2xDEE9g_YRDHg-85" target="nx5s4ot2xDEE9g_YRDHg-81" edge="1">
          <mxGeometry relative="1" as="geometry" />
        </mxCell>
        <mxCell id="nx5s4ot2xDEE9g_YRDHg-89" value="" style="edgeStyle=none;endArrow=none;dashed=0;html=1;strokeWidth=2;rounded=0;fontSize=35;" parent="1" source="nx5s4ot2xDEE9g_YRDHg-85" target="nx5s4ot2xDEE9g_YRDHg-82" edge="1">
          <mxGeometry relative="1" as="geometry" />
        </mxCell>
        <mxCell id="nx5s4ot2xDEE9g_YRDHg-90" value="" style="edgeStyle=none;endArrow=none;dashed=0;html=1;strokeWidth=2;rounded=0;fontSize=35;" parent="1" source="nx5s4ot2xDEE9g_YRDHg-85" target="nx5s4ot2xDEE9g_YRDHg-83" edge="1">
          <mxGeometry relative="1" as="geometry" />
        </mxCell>
        <mxCell id="nx5s4ot2xDEE9g_YRDHg-91" value="" style="edgeStyle=none;endArrow=none;dashed=0;html=1;strokeWidth=2;rounded=0;fontSize=35;" parent="1" source="nx5s4ot2xDEE9g_YRDHg-85" target="nx5s4ot2xDEE9g_YRDHg-84" edge="1">
          <mxGeometry relative="1" as="geometry" />
        </mxCell>
        <mxCell id="nx5s4ot2xDEE9g_YRDHg-81" value="course-deleted" style="strokeWidth=2;dashed=0;align=center;fontSize=12;shape=rect;fillColor=#fffbc0;strokeColor=#000000;" parent="1" vertex="1">
          <mxGeometry x="1162" y="585" width="150" height="20" as="geometry" />
        </mxCell>
      </root>
    </mxGraphModel>
  </diagram>
</mxfile>
